<svg id="0cd3e665-a1a5-40d1-b825-57c7a415d620" data-name="Layer 1" xmlns="http://www.w3.org/2000/svg" viewBox="0 0 51.02 51.02"><title>Artboard 6</title><path d="M15.31,40.82a5.1,5.1,0,1,0,5.1,5.1A5.08,5.08,0,0,0,15.31,40.82ZM0,0V5.1H5.1l9.17,19.35L10.83,30.7a5.19,5.19,0,0,0-.63,2.46,5.1,5.1,0,0,0,5.1,5.1H45.92v-5.1H16.39a.63.63,0,0,1-.64-.64.61.61,0,0,1,.08-.31l2.28-4.16h19a5.12,5.12,0,0,0,4.46-2.63L50.7,8.88A2.47,2.47,0,0,0,51,7.65,2.55,2.55,0,0,0,48.47,5.1H10.75L8.33,0ZM40.82,40.82a5.1,5.1,0,1,0,5.1,5.1A5.08,5.08,0,0,0,40.82,40.82Z" style="fill:#ec2634"/></svg>