<svg id="f8f08686-f90b-4d2e-8e78-2b53065f9d69" data-name="Layer 1" xmlns="http://www.w3.org/2000/svg" viewBox="0 0 82.2 73.7"><title>Artboard 11</title><rect x="9.67" width="8.46" height="8.6" style="fill:#ec2634"/><rect x="18.13" width="9.67" height="8.6" style="fill:#ec2634"/><rect x="27.8" width="7.25" height="8.6" style="fill:#ec2634"/><rect y="8.6" width="9.67" height="9.83" style="fill:#ec2634"/><rect x="9.67" y="8.6" width="8.46" height="9.83" style="fill:#ec2634"/><rect x="27.8" y="8.6" width="7.25" height="9.83" style="fill:#ec2634"/><rect x="35.06" y="8.6" width="10.88" height="9.83" style="fill:#ec2634"/><rect x="45.94" y="8.6" width="8.46" height="9.83" style="fill:#ec2634"/><rect x="54.4" y="8.6" width="9.67" height="9.83" style="fill:#ec2634"/><rect x="64.07" y="8.6" width="8.46" height="9.83" style="fill:#ec2634"/><rect x="72.53" y="8.6" width="9.67" height="9.83" style="fill:#ec2634"/><rect y="18.43" width="9.67" height="8.6" style="fill:#ec2634"/><rect x="18.13" y="18.43" width="9.67" height="8.6" style="fill:#ec2634"/><rect x="27.8" y="18.43" width="7.25" height="8.6" style="fill:#ec2634"/><rect x="35.06" y="18.43" width="10.88" height="8.6" style="fill:#ec2634"/><rect x="45.94" y="18.43" width="8.46" height="8.6" style="fill:#ec2634"/><rect x="54.4" y="18.43" width="9.67" height="8.6" style="fill:#ec2634"/><rect x="64.07" y="18.43" width="8.46" height="8.6" style="fill:#ec2634"/><rect x="72.53" y="18.43" width="9.67" height="8.6" style="fill:#ec2634"/><rect y="27.02" width="9.67" height="11.06" style="fill:#ec2634"/><rect x="9.67" y="27.02" width="8.46" height="11.06" style="fill:#ec2634"/><rect x="18.13" y="27.02" width="9.67" height="11.06" style="fill:#ec2634"/><rect x="27.8" y="27.02" width="7.25" height="11.06" style="fill:#ec2634"/><rect x="35.06" y="27.02" width="10.88" height="11.06" style="fill:#ec2634"/><rect x="45.94" y="27.02" width="8.46" height="11.06" style="fill:#ec2634"/><rect x="54.4" y="27.02" width="9.67" height="11.06" style="fill:#ec2634"/><rect x="64.07" y="27.02" width="8.46" height="11.06" style="fill:#ec2634"/><rect x="72.53" y="27.02" width="9.67" height="11.06" style="fill:#ec2634"/><rect x="9.67" y="38.08" width="8.46" height="7.37" style="fill:#ec2634"/><rect x="18.13" y="38.08" width="9.67" height="7.37" style="fill:#ec2634"/><rect x="27.8" y="38.08" width="7.25" height="7.37" style="fill:#ec2634"/><rect x="35.06" y="38.08" width="10.88" height="7.37" style="fill:#ec2634"/><rect x="45.94" y="38.08" width="8.46" height="7.37" style="fill:#ec2634"/><rect x="54.4" y="38.08" width="9.67" height="7.37" style="fill:#ec2634"/><rect x="64.07" y="38.08" width="8.46" height="7.37" style="fill:#ec2634"/><rect x="18.13" y="45.45" width="9.67" height="9.83" style="fill:#ec2634"/><rect x="27.8" y="45.45" width="7.25" height="9.83" style="fill:#ec2634"/><rect x="35.06" y="45.45" width="10.88" height="9.83" style="fill:#ec2634"/><rect x="45.94" y="45.45" width="8.46" height="9.83" style="fill:#ec2634"/><rect x="27.8" y="55.28" width="7.25" height="8.6" style="fill:#ec2634"/><rect x="35.06" y="55.28" width="10.88" height="8.6" style="fill:#ec2634"/><rect x="35.06" y="63.87" width="10.88" height="9.83" style="fill:#ec2634"/><rect x="45.94" y="55.28" width="8.46" height="8.6" style="fill:#ec2634"/><rect x="54.4" y="45.45" width="9.67" height="9.83" style="fill:#ec2634"/><rect x="45.94" width="8.46" height="8.6" style="fill:#ec2634"/><rect x="54.4" width="9.67" height="8.6" style="fill:#ec2634"/><rect x="64.07" width="8.46" height="8.6" style="fill:#ec2634"/></svg>