<svg id="ffcb6396-e4e5-45eb-b41f-c96376f1ac8d" data-name="Layer 1" xmlns="http://www.w3.org/2000/svg" viewBox="0 0 119.06 87.87"><title>Artboard 9</title><rect x="53.23" y="80.55" width="12.61" height="7.32" style="fill:#fbc535"/><rect x="63.04" y="73.23" width="7" height="7.32" style="fill:#fbc535"/><rect x="49.03" y="58.58" width="21.01" height="7.32" style="fill:#fbc535"/><rect x="49.03" y="73.23" width="7" height="7.32" style="fill:#fbc535"/><rect x="63.04" y="65.91" width="7" height="7.32" style="fill:#fbc535"/><rect x="49.03" y="65.91" width="7" height="7.32" style="fill:#fbc535"/><rect x="70.04" y="43.94" width="7" height="14.65" style="fill:#fbc535"/><rect x="56.03" y="36.61" width="7" height="21.97" style="fill:#fbc535"/><rect x="49.03" y="29.29" width="21.01" height="7.32" style="fill:#fbc535"/><rect x="42.03" y="43.94" width="7" height="14.65" style="fill:#fbc535"/><rect x="49.03" y="7.32" width="21.01" height="7.32" style="fill:#fbc535"/><rect x="77.05" y="21.97" width="7" height="21.97" style="fill:#fbc535"/><rect x="35.02" y="21.97" width="7" height="21.97" style="fill:#fbc535"/><rect x="70.04" y="14.65" width="7" height="7.32" style="fill:#fbc535"/><rect x="42.03" y="14.65" width="7" height="7.32" style="fill:#fbc535"/><rect x="21.01" y="7.32" width="7" height="7.32" style="fill:#fbc535"/><rect x="14.01" width="7" height="7.32" style="fill:#fbc535"/><rect x="21.01" y="52.72" width="7" height="7.32" style="fill:#fbc535"/><rect x="14.01" y="60.05" width="7" height="7.32" style="fill:#fbc535"/><rect x="7" y="29.29" width="7" height="7.32" style="fill:#fbc535"/><rect y="29.29" width="7" height="7.32" style="fill:#fbc535"/><rect x="91.05" y="52.72" width="7" height="7.32" style="fill:#fbc535"/><rect x="98.06" y="60.05" width="7" height="7.32" style="fill:#fbc535"/><rect x="91.05" y="7.32" width="7" height="7.32" style="fill:#fbc535"/><rect x="98.06" width="7" height="7.32" style="fill:#fbc535"/><rect x="105.06" y="29.29" width="7" height="7.32" style="fill:#fbc535"/><rect x="112.07" y="29.29" width="7" height="7.32" style="fill:#fbc535"/></svg>