<svg id="947452a2-ea98-47c2-8222-4c2dc21aa5d6" data-name="Layer 1" xmlns="http://www.w3.org/2000/svg" viewBox="0 0 39.69 51.02"><title>Artboard 2</title><path d="M38.87,39.73C37.13,36,33.07,32.34,31,32.65a7.68,7.68,0,0,0-4.85,2.82.47.47,0,0,1-.51.14c-8.18-3-12.2-9.09-12.3-18.7a.48.48,0,0,1,.2-.4l4.81-3.43c.92-1.49.41-4.36-1.33-7.36S12.25-.25,9.59,0l-.5.35L4.73,3.48,2.62,5A5.84,5.84,0,0,0,.18,9.1c-.86,8.17,1.39,16.84,6.48,24.74,5.36,8.3,13.28,14.62,21.15,17A4.82,4.82,0,0,0,32,50.1l6.8-4.85C40.36,43.67,39.52,41.12,38.87,39.73Z" style="fill:#ec2634"/></svg>