<?xml version="1.0" encoding="UTF-8" standalone="no"?>
<svg
   xmlns:dc="http://purl.org/dc/elements/1.1/"
   xmlns:cc="http://creativecommons.org/ns#"
   xmlns:rdf="http://www.w3.org/1999/02/22-rdf-syntax-ns#"
   xmlns:svg="http://www.w3.org/2000/svg"
   xmlns="http://www.w3.org/2000/svg"
   xmlns:sodipodi="http://sodipodi.sourceforge.net/DTD/sodipodi-0.dtd"
   xmlns:inkscape="http://www.inkscape.org/namespaces/inkscape"
   id="0cd3e665-a1a5-40d1-b825-57c7a415d620"
   data-name="Layer 1"
   viewBox="0 0 51.02 51.02"
   version="1.1"
   sodipodi:docname="cartWhite.svg"
   inkscape:version="1.0.1 (3bc2e813f5, 2020-09-07)">
  <metadata
     id="metadata853">
    <rdf:RDF>
      <cc:Work
         rdf:about="">
        <dc:format>image/svg+xml</dc:format>
        <dc:type
           rdf:resource="http://purl.org/dc/dcmitype/StillImage" />
        <dc:title>Artboard 6</dc:title>
      </cc:Work>
    </rdf:RDF>
  </metadata>
  <defs
     id="defs851" />
  <sodipodi:namedview
     pagecolor="#ffffff"
     bordercolor="#666666"
     borderopacity="1"
     objecttolerance="10"
     gridtolerance="10"
     guidetolerance="10"
     inkscape:pageopacity="0"
     inkscape:pageshadow="2"
     inkscape:window-width="3840"
     inkscape:window-height="2066"
     id="namedview849"
     showgrid="false"
     inkscape:zoom="25.584459"
     inkscape:cx="29.883171"
     inkscape:cy="23.181871"
     inkscape:window-x="2293"
     inkscape:window-y="-11"
     inkscape:window-maximized="1"
     inkscape:current-layer="0cd3e665-a1a5-40d1-b825-57c7a415d620" />
  <title
     id="title844">Artboard 6</title>
  <path
     d="M15.31,40.82a5.1,5.1,0,1,0,5.1,5.1A5.08,5.08,0,0,0,15.31,40.82ZM0,0V5.1H5.1l9.17,19.35L10.83,30.7a5.19,5.19,0,0,0-.63,2.46,5.1,5.1,0,0,0,5.1,5.1H45.92v-5.1H16.39a.63.63,0,0,1-.64-.64.61.61,0,0,1,.08-.31l2.28-4.16h19a5.12,5.12,0,0,0,4.46-2.63L50.7,8.88A2.47,2.47,0,0,0,51,7.65,2.55,2.55,0,0,0,48.47,5.1H10.75L8.33,0ZM40.82,40.82a5.1,5.1,0,1,0,5.1,5.1A5.08,5.08,0,0,0,40.82,40.82Z"
     style="fill:#ec2634"
     id="path846" />
  <path
     style="fill:#ffffff;stroke-width:0.0390862"
     d="m 14.447892,38.16707 c -1.735815,-0.29089 -3.277566,-1.562252 -3.900065,-3.216081 -0.489688,-1.300981 -0.408538,-2.814698 0.217664,-4.060152 0.08775,-0.174527 0.917336,-1.69362 1.843524,-3.375761 l 1.683978,-3.058438 -0.118995,-0.256293 C 14.108551,24.059384 12.045089,19.701091 9.5885246,14.51525 L 5.1220456,5.0864489 2.5716693,5.085698 0.02129295,5.0849475 V 2.5441652 0.00338274 L 4.1692891,0.01333191 8.3172853,0.02328109 9.5228492,2.5638859 10.728413,5.1044907 29.83306,5.1240338 c 18.442534,0.018866 19.112096,0.022044 19.319621,0.09171 0.688426,0.2311052 1.274617,0.7285075 1.55521,1.3196515 0.08562,0.1803865 0.174371,0.4071253 0.197221,0.5038637 0.116,0.4911161 0.09069,1.0130341 -0.0715,1.4745002 -0.0919,0.261483 -9.219167,16.8140328 -9.532185,17.2868888 -0.120964,0.182728 -0.395846,0.508147 -0.610852,0.723154 -0.710767,0.710767 -1.517749,1.155207 -2.540663,1.399252 l -0.351776,0.08393 -9.850744,0.01139 -9.850743,0.01139 -0.583999,1.064504 c -1.815632,3.309505 -1.778731,3.238372 -1.778047,3.42746 9.11e-4,0.251378 0.132226,0.468463 0.349805,0.578283 l 0.174237,0.08794 h 14.824942 14.824941 v 2.521062 2.521061 l -15.56609,-0.004 c -13.19071,-0.0034 -15.616212,-0.01238 -15.894542,-0.05902 z"
     id="path855" />
  <path
     style="fill:#ffffff;stroke-width:0.0390862"
     d="m 14.756801,50.970299 c -0.407312,-0.05033 -0.751676,-0.132277 -1.157783,-0.275513 -1.457113,-0.513934 -2.633275,-1.726952 -3.119889,-3.217652 -0.172889,-0.529631 -0.233009,-0.932612 -0.233722,-1.566622 -7.24e-4,-0.644588 0.05587,-1.001606 0.252204,-1.590923 0.424128,-1.273079 1.367828,-2.357725 2.558939,-2.941127 0.836084,-0.40951 1.520286,-0.553647 2.459123,-0.51805 1.330525,0.05045 2.450199,0.537064 3.386705,1.471878 1.008332,1.006509 1.526023,2.336621 1.468736,3.773653 -0.02321,0.582178 -0.07894,0.903897 -0.243738,1.407104 -0.411785,1.25735 -1.375638,2.362376 -2.589417,2.968683 -0.800357,0.399794 -1.914975,0.5956 -2.781158,0.488569 z"
     id="path857" />
  <path
     style="fill:#ffffff;stroke-width:0.0390862"
     d="m 40.377823,50.983921 c -1.202962,-0.109285 -2.411252,-0.697367 -3.237564,-1.575743 -0.661973,-0.703681 -1.097492,-1.539321 -1.303454,-2.500967 -0.09975,-0.465755 -0.09828,-1.527084 0.0028,-1.993398 0.517851,-2.389763 2.57311,-4.064653 4.987742,-4.064653 2.471311,0 4.576785,1.774827 5.007366,4.220998 0.07351,0.417611 0.06412,1.348295 -0.01782,1.767081 -0.373526,1.908965 -1.748036,3.419806 -3.601984,3.959249 -0.582088,0.169369 -1.266843,0.239234 -1.837053,0.187433 z"
     id="path859" />
</svg>
